<svg id="Capa_1" data-name="Capa 1" xmlns="http://www.w3.org/2000/svg" viewBox="0 0 1120.76 515.64"><defs><style>.cls-1{fill:#fff;}</style></defs><path d="M653.37,989.82c-9.35,7.87-17.62,14.79-25.79,21.82a8.83,8.83,0,0,0-2,3.38q-12.35,30.27-24.63,60.58a35.86,35.86,0,0,0-1.33,3.77c-1.38,4.89.5,7.29,5.63,7,8.37-.5,15.51,1.82,20.42,9,1,1.38,1.94,3.63,1.46,5-2.8,7.77-5,16-9.4,22.88-5.11,8-12.84,13.22-23.33,13s-21.29.48-31.94.52c-27.47.1-55,.07-82.43.07-10,0-15.18-6.26-13.29-16,4-20.45,17.43-32.62,38.24-33.62,7.7-.37,12.2-3.51,15-10.53,14.26-35.51,28.75-70.94,43.1-106.42q20.42-50.43,40.7-100.93c1.91-4.75,3.34-9.7,5.5-16-5.32,0-9.68-.09-14,0a21.17,21.17,0,0,0-5.39,1c-4,1.21-8.34,1.9-11.72,4.08-4.27,2.75-1.09,7.6-1.36,11.45-1,14.34-7.18,26.16-16.55,36.57-3.11,3.46-6.71,6.47-10,9.8-9.61,9.84-21.79,12.24-34.79,11.89-10.89-.29-17-6.44-17.09-17.37-.11-13.82,4.2-26.69,10.77-38.56,27.09-49,69.33-73.07,124.79-74.17,31.8-.64,63.61-.09,95.42-.32,4.29,0,6.77,1.54,8.89,5,3.8,6.12,5.1,12.92,1.77,19-4.16,7.63-9.79,14.47-15,21.48-.85,1.14-2.85,1.68-4.42,2-7.68,1.46-15.41,2.64-23.07,4.17-1.49.3-3.48,1.43-4,2.69-8.3,19.77-16.39,39.62-23.63,60.38l86.52-64.65c-2.3-.48-3.37-.71-4.44-.92-10.17-2-13.9-7.41-11.72-17.49,2.41-11.14,7.5-20.88,17.59-26.71,4.29-2.48,9.66-3.63,14.67-4.2,7.08-.82,14.28-.7,21.43-.72q40.46-.14,80.93-.12c1.33,0,2.67-.07,4,0,8.13.66,12.34,4.73,11.69,12.83-1,12.87-5.71,24.09-16.54,32.19-4.62,3.45-9.79,4-15.07,4.3-13.7.83-25.45,5.47-36.44,14.18-28,22.23-56.81,43.51-85.2,65.29a12.23,12.23,0,0,0-4.18,5.8c-18,62-22.61,124.59-7.07,187.88,4.22,17.16,9.1,34.16,17.92,49.62,13.25,23.23,33.52,36.43,62.77,33.67,20.84-2,39.9-9.92,58.19-19.67,1.37-.72,2.28-3.45,2.35-5.29.57-14.26,3.2-27.84,12.51-39.23,12-14.67,28.46-21,46.52-23.53,8-1.1,17.33,8.06,18.76,17.17a43.06,43.06,0,0,1-4.62,26.64c-18.27,35.76-47.35,59.86-83.15,76.71C838,1245.18,818,1252,796.78,1253.83c-13.89,1.2-28,.77-41.93.5-17.55-.33-33-6.71-48.09-15.68-21.52-12.82-32.37-33.46-42.07-54.77-16.34-35.89-20.32-74.19-19.67-113.19.43-25.87,3.35-51.47,7.69-76.94C652.85,993,653,992.16,653.37,989.82Z" transform="translate(-435.64 -768.19)"/><path d="M1389.46,887.62c2.77,11.82,5.49,23.4,8.4,35.81l40.33-35.82c-2-.71-3.35-1.14-4.68-1.69-5.7-2.36-7.86-6.41-6-12.38,2.43-7.94,6-15.28,14-19.12a18.46,18.46,0,0,1,7.55-1.95c22.48-.17,45-.16,67.44-.16,6.39,0,9.57,4.55,8.26,10.84-2.9,13.92-11.32,22-25.33,23.5-7.89.85-14.23,4.22-20,9.15q-30.43,25.86-60.83,51.77a1.66,1.66,0,0,1-.38.32c-11.58,6.1-11.73,14.87-8.23,26.45,6.28,20.85,11,42.18,16.09,63.37,1.93,8,5.48,13.48,14.61,14.18,5.55.43,7.63,3.53,6.11,9a66.43,66.43,0,0,1-6.6,16.52,14.93,14.93,0,0,1-13.69,7.49c-28.31-.25-56.62-.06-84.92-.05-7.58,0-10-2.78-8.67-10.1,2.24-12.18,9.14-20.06,21.41-22.86,2.26-.52,4.55-.91,7.36-1.47-3.12-14.7-6.23-29.33-9.55-45l-51.28,45.86c1.37.31,1.92.48,2.48.55,11.18,1.37,14.53,6.46,9.82,16.61a50.44,50.44,0,0,1-10.07,13.77c-1.89,1.91-5.77,2.53-8.76,2.56-22,.22-44,.14-65.94.15-8.23,0-11.61-4.76-8.76-12.83,3.89-11,10.56-18.95,23.08-20.79a22.46,22.46,0,0,0,10.57-4.88q44.05-36.83,87.7-74.15a6,6,0,0,0,1.61-5q-8.21-34.23-16.88-68.34c-.8-3.15-2.65-6.06-4.28-8.93a3.68,3.68,0,0,0-2.85-1.19,39.42,39.42,0,0,0-7.44.73c-10.33,2.14-10.33,2.19-10.95,12.62-.75,12.53-6.83,22.13-16.73,29.33-4.28,3.11-9.14,5.42-13.73,8.09-6.48,3.77-12.56,2.21-18.19-1.75s-6.1-9.73-5.11-15.72c2.53-15.34,10.6-27.88,20.83-39.1,18.84-20.68,42.33-31.17,70.37-31.09,23.31.06,46.62.26,69.94.44,9.57.07,12.62,4.05,10.34,13.26-2.72,11-10.08,17.25-20.64,20.2C1394.83,886.52,1392.4,887,1389.46,887.62Z" transform="translate(-435.64 -768.19)"/><path d="M1044.64,1056.2c12.53,3.73,14.41,8.59,8.29,19.61-2.94,5.3-7.49,7.76-13.47,7.78-17.48.08-35,.21-52.44.23-23.28,0-46.55,0-69.83-.06q-31.37,0-62.72,0c-1,0-2,0-3,0-9.84-.19-11.23-2.69-8.46-11.8,2.81-9.29,9.58-12.79,18.05-14,3.55-.5,5.18-2,6.41-5q13.21-32.88,26.58-65.69a8.29,8.29,0,0,0,.28-1.89c-13.07-2.11-16-8.82-7.82-19.34,2.45-3.16,6.68-5.57,10.59-6.86,11.2-3.69,22.7-6.48,34-9.91,9.34-2.83,12.71-1.95,18.51,6C969,946.88,988.42,940,1005.1,961c9.79-6.14,20-10.9,31.4-12.28a97.4,97.4,0,0,1,12-.71c17.09.12,26,10.57,24.75,27.74-1,12.81-6.74,23.93-11.1,35.56C1056.51,1026.26,1050.56,1041.05,1044.64,1056.2Zm-67.2,2c5.95,0,11,0,16,0s7.91-2.71,9.69-7.54c4-10.92,8.71-21.59,12.87-32.45,3.9-10.22,7.45-20.58,11.19-30.87,1.11-3-.34-4.23-3.09-4.81-6.12-1.29-20,5.68-22.29,11.47q-11.24,27.75-22.29,55.56C978.62,1051.88,978.31,1054.51,977.44,1058.15Zm-67.66-.79c6.9,2.28,13.51,1.89,20,.16a8.09,8.09,0,0,0,4.76-4.1c8-19.36,15.91-38.78,23.48-58.32,1.34-3.49,2.81-9,1.14-11.12-3-3.76-8-1.11-12,.61-5.54,2.43-11,4.45-13.49,11.32-7.13,19.35-15.06,38.4-22.66,57.58C910.53,1054.68,910.23,1055.94,909.78,1057.36Z" transform="translate(-435.64 -768.19)"/><path d="M1152.58,950.12c6.6-1.25,12.41-2.62,18.29-3.37a67.62,67.62,0,0,1,13.93-.46c14.72,1.2,23.57,9.11,26.31,23.6,2.5,13.21.64,25.83-4.06,38.61-9.07,24.68-24.56,44.08-45.73,59-22.49,15.87-47.88,20-74.74,16.34a23.1,23.1,0,0,1-9.32-3.34c-9.83-6.48-16.48-12.65-10.34-27.15,10.49-24.83,20.25-50,30.3-75q9.21-22.92,18.39-45.88c.6-1.5,1.08-3.06,1.59-4.48-.58-.43-.82-.76-1.1-.79-12.85-1.51-11.94-9-7.11-17.22,2.49-4.25,5.74-7.15,10.53-8.48,13.3-3.7,26.54-7.58,39.86-11.18a13.91,13.91,0,0,1,6.41.12c6.16,1.4,8.22,5.74,5.86,11.6q-8.85,22-17.64,44C1153.58,947.18,1153.23,948.28,1152.58,950.12Zm-41.22,101.07c9.6,6,19.65,5.44,27.85-2a67.48,67.48,0,0,0,12-14.49c6.64-10.81,12.14-22.28,12.75-35.31.37-7.93-3.64-13.44-10.3-15.21-5-1.31-15.63,3.42-17.77,8.43C1127.64,1012,1119.58,1031.53,1111.36,1051.19Z" transform="translate(-435.64 -768.19)"/><path d="M826.83,946.65c6.25.83,12.62,1.14,18.72,2.59,17.33,4.13,26.6,16.14,27.55,34,1,19-5.75,35.63-15.13,51.4-16.12,27.11-40.67,43-70.61,50.86a64.17,64.17,0,0,1-34.11-.74c-12.64-3.63-20.46-12-23.23-24.86-4.14-19.17.5-37,9.07-54,15.66-31.17,42.26-48.24,74.74-57.64a16.62,16.62,0,0,1,3.45-.52c3.15-.22,6.31-.38,9.47-.57ZM776,1039c.5,3.2,1.19,7.12,1.7,11.06.61,4.76,3.74,6.87,8,7.58,6.53,1.1,11.75-2,16-6.29,12.6-12.63,19.82-28.31,23-45.56,1.24-6.75,0-14.15-1.14-21.07-1-5.81-7.28-9.36-12.94-7.56-4.29,1.36-8.84,3.48-12,6.57C783.4,998.6,778.27,1017.83,776,1039Z" transform="translate(-435.64 -768.19)"/><path d="M1213.31,1082.8c-10.14,0-20.42.19-30.69-.23-1.32,0-3.27-3-3.62-4.93-1.31-7,5.7-17,12.66-18.77a4.87,4.87,0,0,1,1.45-.35c9.52.81,13.39-4.84,16.44-12.9,7.36-19.41,15.44-38.55,23.42-58.28-1.7-.1-2.78-.23-3.87-.22-3.92,0-8.77.08-9.84-4-1-3.76-.59-9,1.42-12.11a23,23,0,0,1,11-8.58c14.41-5.14,29.09-9.52,43.76-13.87a13.53,13.53,0,0,1,8.11.36c3.87,1.49,6,4.39,4.16,9.08-7.24,18.06-14.33,36.18-21.5,54.27-2.64,6.64-5.62,13.17-8,19.92-2.9,8.39-8.6,13.25-17.19,14.56-15.3,2.33-22.44,13-27.07,26.18C1213,1075.71,1213.51,1079.09,1213.31,1082.8Z" transform="translate(-435.64 -768.19)"/><path d="M860,1113.39c-3.66,4.94-6.24,8.76-9.17,12.31-6.59,8-8.72,17.84-11.15,27.43-1.53,6-4.29,9.23-10.35,11.66-12.39,5-25,4.8-37.78,4.19-5.84-.28-10-4-14-8.93-9.11-11.07-13.1-24-17-37.25-.41-1.4-.55-2.88-.89-4.72,8.39-.58,16.48-1.47,24.59-1.61,11.61-.21,22-4.64,32.55-8.62,4.63-1.75,8.33-1.74,13,.83,4.91,2.69,10.92,3.62,16.58,4.58C850.36,1113.94,854.56,1113.39,860,1113.39Z" transform="translate(-435.64 -768.19)"/><path class="cls-1" d="M974.59,1115.9c2.67,22.62,3.71,44.45-8.83,64.29a255.34,255.34,0,0,1-15.9,22.1c-5.44,6.86-11.28,13.44-17.36,19.75-11.08,11.51-24.08,20.55-37.7,28.88a248.59,248.59,0,0,1-64.72,28,132.08,132.08,0,0,1-39,4.67c-13-.4-26-.68-39,.07-16.21.94-31-3.63-45.26-10.21-16-7.35-30.39-17.15-41.58-30.79-6.46-7.88-11.3-17.06-17.14-25.48-10.08-14.54-15.84-31-21.42-47.55-1-3-1.76-6-2.68-9.06-.07-.23-.52-.35-.86-.56-11.11,6.31-23.63,6.5-35.72,6.68-38,.56-75.95.44-113.91,0-5.25-.06-10.6-3.22-15.64-5.52a36.87,36.87,0,0,1-8.48-6c-15.24-13.19-15.77-29.52-11.36-47.8,4.13-17.09,14.35-29.7,27.34-39.9,8.32-6.54,18.4-11.63,29.26-10.3l39.75-100c-8,0-14.75-.14-21.47,0-13.08.34-24.09-4.57-32.85-13.87a43.72,43.72,0,0,1-11.74-26.47c-1.46-17,1.63-33.41,8.36-49.2a151.46,151.46,0,0,1,23.55-38.24c6.06-7.22,11.91-14.81,19-21a189.65,189.65,0,0,1,27.24-19.7,154.63,154.63,0,0,1,50-19.32,50.3,50.3,0,0,1,9.37-1.14q142.64-.08,285.28-.13c8.21,0,14.4,4.78,21.34,7.56,2.79,1.11,4.12,6.51,5.6,10.17,7.89,19.6,5,38.84-4.06,57-7.4,14.74-19.61,25.54-34.86,32-4.84,2.06-10.76,1.74-16.22,2.2-7.94.68-14.79,2.62-21,8.65-6.91,6.72-15.63,11.56-23.4,17.43-5.86,4.42-11.47,9.17-16.93,14.15a128.22,128.22,0,0,1,50.25-.22c8.58,1.71,17,4.12,24.38,9.57,2.28,1.7,6.4,2.3,9.23,1.6,11.63-2.84,23.07-6.46,34.63-9.58a43,43,0,0,1,9.35-1.22c18.08-.85,36.17-1.84,54.27-2.21a50.49,50.49,0,0,1,16.12,2.62c7.92,2.51,15.53,2.09,23.56.71,7-1.2,14.22-1.07,21.35-1.1,9.41,0,18.82.33,29,.54-.13.34.41-.5.53-1.4,1.61-11.47,6.43-21.52,13-31,5.85-8.44,14.42-12.55,23.65-15.47,12-3.82,24.08-8.12,36.45-10.32a89.26,89.26,0,0,1,29.31-.15c9.25,1.51,16.21,8.06,22,15.88a27.44,27.44,0,0,1,5.48,20.43c-.79,7-1.73,13.89-2.59,20.69l12.77,4.19c2.74-8.76,4.9-18.12,8.6-26.83a100.92,100.92,0,0,1,12.62-21.79c6.63-8.64,13.79-17.13,22-24.28a112.86,112.86,0,0,1,57.6-26.64,128.19,128.19,0,0,1,21.33-1.69q98.64,1,197.28,2.34c7.2.09,9.73,6.61,13.72,11,1,1.08,1.27,3,2.39,3.72,6.2,4.12,5.56,10.3,6.25,16.65,1.69,15.48-3.38,28.9-11.09,41.59-4.61,7.6-12.16,12.17-20.08,15.72a83.2,83.2,0,0,1-15.65,5.09c-6.74,1.52-12,5.26-17,9.6-8.92,7.62-18,15-27,22.59-2.41,2-4.45,4.5-6.84,6.56a82.18,82.18,0,0,1-8.55,6.71c-5.24,3.46-7.21,7.43-5.45,15,3.15,13.61,6.82,27.11,10.37,40.63a8.16,8.16,0,0,0,2.21,3.71c6.3,5.85,12.82,11.48,19,17.44a9.47,9.47,0,0,1,2.74,5.71c.83,13.52.32,26.74-5.45,39.57-5.43,12.09-14,20.83-24.87,27.66a15.77,15.77,0,0,1-7.93,2.25q-54,.23-107.92,0c-2.72,0-5.41-1.26-8.15-1.48a66.57,66.57,0,0,0-10.28,0c-3.94.3-7.85,1.54-11.76,1.5q-62.68-.6-125.36-1.61c-5.71-.1-11.87,1-16.77-4.35-1.34-1.46-5.88-1-8.47-.1-11.07,4-22.32,6.41-34.15,6.18-10.82-.22-21.67.29-32.47-.23-5.36-.25-10.62-2.33-16-3.14-3.1-.47-6.85-1.1-9.42.16a36.64,36.64,0,0,1-15.82,3.57c-21.48.49-43,1.19-64.42,1.83C977.83,1115.64,976.19,1115.8,974.59,1115.9ZM653.37,989.82c-.39,2.34-.52,3.13-.66,3.93-4.34,25.47-7.26,51.07-7.69,76.94-.65,39,3.33,77.3,19.67,113.19,9.7,21.31,20.55,41.95,42.07,54.77,15,9,30.54,15.35,48.09,15.68,14,.27,28,.7,41.93-.5,21.22-1.84,41.23-8.65,60.51-17.72,35.8-16.85,64.88-40.95,83.15-76.71a43.06,43.06,0,0,0,4.62-26.64c-1.43-9.11-10.77-18.27-18.76-17.17-18.06,2.5-34.52,8.86-46.52,23.53-9.31,11.39-11.94,25-12.51,39.23-.07,1.84-1,4.57-2.35,5.29-18.29,9.75-37.35,17.71-58.19,19.67-29.25,2.76-49.52-10.44-62.77-33.67-8.82-15.46-13.7-32.46-17.92-49.62-15.54-63.29-11-125.86,7.07-187.88a12.23,12.23,0,0,1,4.18-5.8c28.39-21.78,57.17-43.06,85.2-65.29,11-8.71,22.74-13.35,36.44-14.18,5.28-.32,10.45-.85,15.07-4.3,10.83-8.1,15.52-19.32,16.54-32.19.65-8.1-3.56-12.17-11.69-12.83-1.32-.1-2.66,0-4,0q-40.47,0-80.93.12c-7.15,0-14.35-.1-21.43.72-5,.57-10.38,1.72-14.67,4.2-10.09,5.83-15.18,15.57-17.59,26.71-2.18,10.08,1.55,15.49,11.72,17.49,1.07.21,2.14.44,4.44.92l-86.52,64.65c7.24-20.76,15.33-40.61,23.63-60.38.53-1.26,2.52-2.39,4-2.69,7.66-1.53,15.39-2.71,23.07-4.17,1.57-.3,3.57-.84,4.42-2,5.23-7,10.86-13.85,15-21.48,3.33-6.11,2-12.91-1.77-19-2.12-3.42-4.6-5-8.89-5-31.81.23-63.62-.32-95.42.32-55.46,1.1-97.7,25.22-124.79,74.17-6.57,11.87-10.88,24.74-10.77,38.56.09,10.93,6.2,17.08,17.09,17.37,13,.35,25.18-2,34.79-11.89,3.25-3.33,6.85-6.34,10-9.8,9.37-10.41,15.57-22.23,16.55-36.57.27-3.85-2.91-8.7,1.36-11.45,3.38-2.18,7.75-2.87,11.72-4.08a21.17,21.17,0,0,1,5.39-1c4.36-.14,8.72,0,14,0-2.16,6.33-3.59,11.28-5.5,16q-20.26,50.5-40.7,100.93c-14.35,35.48-28.84,70.91-43.1,106.42-2.82,7-7.32,10.16-15,10.53-20.81,1-34.27,13.17-38.24,33.62-1.89,9.79,3.26,16,13.29,16,27.48,0,55,0,82.43-.07,10.65,0,21.3-.68,31.94-.52s18.22-5.09,23.33-13c4.39-6.84,6.6-15.11,9.4-22.88.48-1.33-.5-3.58-1.46-5-4.91-7.15-12-9.47-20.42-9-5.13.3-7-2.1-5.63-7a35.86,35.86,0,0,1,1.33-3.77q12.28-30.3,24.63-60.58a8.83,8.83,0,0,1,2-3.38C635.75,1004.61,644,997.69,653.37,989.82Zm736.09-102.2c2.94-.66,5.37-1.1,7.75-1.77,10.56-3,17.92-9.19,20.64-20.2,2.28-9.21-.77-13.19-10.34-13.26-23.32-.18-46.63-.38-69.94-.44-28-.08-51.53,10.41-70.37,31.09-10.23,11.22-18.3,23.76-20.83,39.1-1,6-.37,11.85,5.11,15.72s11.71,5.52,18.19,1.75c4.59-2.67,9.45-5,13.73-8.09,9.9-7.2,16-16.8,16.73-29.33.62-10.43.62-10.48,10.95-12.62a39.42,39.42,0,0,1,7.44-.73,3.68,3.68,0,0,1,2.85,1.19c1.63,2.87,3.48,5.78,4.28,8.93q8.7,34.11,16.88,68.34a6,6,0,0,1-1.61,5q-43.7,37.26-87.7,74.15a22.46,22.46,0,0,1-10.57,4.88c-12.52,1.84-19.19,9.75-23.08,20.79-2.85,8.07.53,12.83,8.76,12.83,22,0,44,.07,65.94-.15,3,0,6.87-.65,8.76-2.56a50.44,50.44,0,0,0,10.07-13.77c4.71-10.15,1.36-15.24-9.82-16.61-.56-.07-1.11-.24-2.48-.55l51.28-45.86c3.32,15.66,6.43,30.29,9.55,45-2.81.56-5.1,1-7.36,1.47-12.27,2.8-19.17,10.68-21.41,22.86-1.34,7.32,1.09,10.11,8.67,10.1,28.3,0,56.61-.2,84.92.05a14.93,14.93,0,0,0,13.69-7.49,66.43,66.43,0,0,0,6.6-16.52c1.52-5.49-.56-8.59-6.11-9-9.13-.7-12.68-6.18-14.61-14.18-5.11-21.19-9.81-42.52-16.09-63.37-3.5-11.58-3.35-20.35,8.23-26.45a1.66,1.66,0,0,0,.38-.32q30.42-25.89,60.83-51.77c5.79-4.93,12.13-8.3,20-9.15,14-1.51,22.43-9.58,25.33-23.5,1.31-6.29-1.87-10.84-8.26-10.84-22.48,0-45,0-67.44.16a18.46,18.46,0,0,0-7.55,1.95c-8,3.84-11.56,11.18-14,19.12-1.83,6,.33,10,6,12.38,1.33.55,2.71,1,4.68,1.69l-40.33,35.82C1395,911,1392.23,899.44,1389.46,887.62ZM1044.64,1056.2c5.92-15.15,11.87-29.94,17.46-44.86,4.36-11.63,10.15-22.75,11.1-35.56,1.28-17.17-7.66-27.62-24.75-27.74a97.4,97.4,0,0,0-12,.71c-11.42,1.38-21.61,6.14-31.4,12.28-16.68-21-36.12-14.15-55.49-5.76-5.8-7.93-9.17-8.81-18.51-6-11.29,3.43-22.79,6.22-34,9.91-3.91,1.29-8.14,3.7-10.59,6.86-8.15,10.52-5.25,17.23,7.82,19.34a8.29,8.29,0,0,1-.28,1.89q-13.29,32.85-26.58,65.69c-1.23,3.07-2.86,4.55-6.41,5-8.47,1.19-15.24,4.69-18.05,14-2.77,9.11-1.38,11.61,8.46,11.8,1,0,2,0,3,0q31.37,0,62.72,0c23.28,0,46.55.08,69.83.06,17.48,0,35-.15,52.44-.23,6,0,10.53-2.48,13.47-7.78C1059.05,1064.79,1057.17,1059.93,1044.64,1056.2Zm107.94-106.08c.65-1.84,1-2.94,1.43-4q8.81-22,17.64-44c2.36-5.86.3-10.2-5.86-11.6a13.91,13.91,0,0,0-6.41-.12c-13.32,3.6-26.56,7.48-39.86,11.18-4.79,1.33-8,4.23-10.53,8.48-4.83,8.26-5.74,15.71,7.11,17.22.28,0,.52.36,1.1.79-.51,1.42-1,3-1.59,4.48q-9.18,22.95-18.39,45.88c-10,25-19.81,50.16-30.3,75-6.14,14.5.51,20.67,10.34,27.15a23.1,23.1,0,0,0,9.32,3.34c26.86,3.64,52.25-.47,74.74-16.34,21.17-15,36.66-34.35,45.73-59,4.7-12.78,6.56-25.4,4.06-38.61-2.74-14.49-11.59-22.4-26.31-23.6a67.62,67.62,0,0,0-13.93.46C1165,947.5,1159.18,948.87,1152.58,950.12Zm-325.75-3.47-.08.47c-3.16.19-6.32.35-9.47.57a16.62,16.62,0,0,0-3.45.52c-32.48,9.4-59.08,26.47-74.74,57.64-8.57,17-13.21,34.85-9.07,54,2.77,12.85,10.59,21.23,23.23,24.86a64.17,64.17,0,0,0,34.11.74c29.94-7.84,54.49-23.75,70.61-50.86,9.38-15.77,16.14-32.41,15.13-51.4-1-17.83-10.22-29.84-27.55-34C839.45,947.79,833.08,947.48,826.83,946.65Zm386.48,136.15c.2-3.71-.34-7.09.66-9.92,4.63-13.13,11.77-23.85,27.07-26.18,8.59-1.31,14.29-6.17,17.19-14.56,2.34-6.75,5.32-13.28,8-19.92,7.17-18.09,14.26-36.21,21.5-54.27,1.88-4.69-.29-7.59-4.16-9.08a13.53,13.53,0,0,0-8.11-.36c-14.67,4.35-29.35,8.73-43.76,13.87a23,23,0,0,0-11,8.58c-2,3.14-2.4,8.35-1.42,12.11,1.07,4.13,5.92,4.07,9.84,4,1.09,0,2.17.12,3.87.22-8,19.73-16.06,38.87-23.42,58.28-3,8.06-6.92,13.71-16.44,12.9a4.87,4.87,0,0,0-1.45.35c-7,1.73-14,11.76-12.66,18.77.35,1.88,2.3,4.88,3.62,4.93C1192.89,1083,1203.17,1082.8,1213.31,1082.8ZM860,1113.39c-5.42,0-9.62.55-13.6-.13-5.66-1-11.67-1.89-16.58-4.58-4.68-2.57-8.38-2.58-13-.83-10.53,4-20.94,8.41-32.55,8.62-8.11.14-16.2,1-24.59,1.61.34,1.84.48,3.32.89,4.72,3.89,13.21,7.88,26.18,17,37.25,4,4.9,8.16,8.65,14,8.93,12.73.61,25.39.78,37.78-4.19,6.06-2.43,8.82-5.61,10.35-11.66,2.43-9.59,4.56-19.43,11.15-27.43C853.74,1122.15,856.32,1118.33,860,1113.39Z" transform="translate(-435.64 -768.19)"/><path class="cls-1" d="M977.44,1058.15c.87-3.64,1.18-6.27,2.12-8.65q11-27.82,22.29-55.56c2.34-5.79,16.17-12.76,22.29-11.47,2.75.58,4.2,1.77,3.09,4.81-3.74,10.29-7.29,20.65-11.19,30.87-4.16,10.86-8.85,21.53-12.87,32.45-1.78,4.83-4.54,7.51-9.69,7.54S983.39,1058.15,977.44,1058.15Z" transform="translate(-435.64 -768.19)"/><path class="cls-1" d="M909.78,1057.36c.45-1.42.75-2.68,1.22-3.87,7.6-19.18,15.53-38.23,22.66-57.58,2.53-6.87,8-8.89,13.49-11.32,3.94-1.72,9-4.37,12-.61,1.67,2.14.2,7.63-1.14,11.12-7.57,19.54-15.47,39-23.48,58.32a8.09,8.09,0,0,1-4.76,4.1C923.29,1059.25,916.68,1059.64,909.78,1057.36Z" transform="translate(-435.64 -768.19)"/><path class="cls-1" d="M1111.36,1051.19c8.22-19.66,16.28-39.17,24.57-58.57,2.14-5,12.82-9.74,17.77-8.43,6.66,1.77,10.67,7.28,10.3,15.21-.61,13-6.11,24.5-12.75,35.31a67.48,67.48,0,0,1-12,14.49C1131,1056.63,1121,1057.18,1111.36,1051.19Z" transform="translate(-435.64 -768.19)"/><path class="cls-1" d="M776,1039c2.23-21.2,7.36-40.43,22.62-55.27,3.17-3.09,7.72-5.21,12-6.57,5.66-1.8,11.94,1.75,12.94,7.56,1.18,6.92,2.38,14.32,1.14,21.07-3.17,17.25-10.39,32.93-23,45.56-4.28,4.29-9.5,7.39-16,6.29-4.25-.71-7.38-2.82-8-7.58C777.23,1046.15,776.54,1042.23,776,1039Z" transform="translate(-435.64 -768.19)"/></svg>