<svg xmlns="http://www.w3.org/2000/svg" viewBox="0 0 595.73 595.73"><defs><style>.cls-1{fill:#1d1d1b;}.cls-2{fill:#fff;}</style></defs><g id="nave8"><g id="nave0"><polygon class="cls-1" points="297.87 133.63 368.93 10.53 226.81 10.53 297.87 133.63"/><path class="cls-2" d="M664.5,458.71c0-.1,0-.2-.07-.3C664.45,458.51,664.47,458.61,664.5,458.71Z" transform="translate(-451.86 -451.99)"/><path class="cls-2" d="M668,452.26c.09,0,.18-.07.27-.09C668.16,452.19,668.07,452.23,668,452.26Z" transform="translate(-451.86 -451.99)"/><path class="cls-2" d="M664.31,457.44c0-.1,0-.2,0-.3A2.91,2.91,0,0,0,664.31,457.44Z" transform="translate(-451.86 -451.99)"/><path class="cls-2" d="M835.15,457.14c0,.1,0,.21,0,.31C835.15,457.34,835.15,457.25,835.15,457.14Z" transform="translate(-451.86 -451.99)"/><path class="cls-2" d="M833.58,453.5s0,0,0,0S833.59,453.51,833.58,453.5Z" transform="translate(-451.86 -451.99)"/><path class="cls-2" d="M834.46,454.63a.87.87,0,0,0-.09-.11,2.26,2.26,0,0,1,.16.26S834.49,454.68,834.46,454.63Z" transform="translate(-451.86 -451.99)"/><path class="cls-2" d="M835,458.4c0,.11,0,.21-.07.31C835,458.61,835,458.51,835,458.4Z" transform="translate(-451.86 -451.99)"/><path class="cls-2" d="M674.11,454.63l4.55,7.89H820.78l4.56-7.89A5.24,5.24,0,0,1,830,452l-.08,0H669.55l-.1,0A5.27,5.27,0,0,1,674.11,454.63Z" transform="translate(-451.86 -451.99)"/><path class="cls-2" d="M834.94,455.8a.78.78,0,0,1,0,.14A.78.78,0,0,0,834.94,455.8Z" transform="translate(-451.86 -451.99)"/><path class="cls-2" d="M832.36,452.63l.3.17A2.28,2.28,0,0,0,832.36,452.63Z" transform="translate(-451.86 -451.99)"/><path class="cls-2" d="M665.83,453.54s0,0,0,0S665.84,453.52,665.83,453.54Z" transform="translate(-451.86 -451.99)"/><path class="cls-2" d="M665,454.63c0,.05,0,.11-.07.16s.1-.19.16-.28A.54.54,0,0,0,665,454.63Z" transform="translate(-451.86 -451.99)"/><path class="cls-2" d="M664.45,455.94a.78.78,0,0,0,0-.14A.78.78,0,0,1,664.45,455.94Z" transform="translate(-451.86 -451.99)"/><path class="cls-2" d="M666.79,452.8l.3-.17Z" transform="translate(-451.86 -451.99)"/><path class="cls-2" d="M831.2,452.17l.26.08Z" transform="translate(-451.86 -451.99)"/><polygon class="cls-1" points="292.6 221.25 292.6 145.57 237.78 50.6 292.6 221.25"/><path class="cls-2" d="M747.75,711.71a4.9,4.9,0,0,1-.52-.24A4.9,4.9,0,0,0,747.75,711.71Z" transform="translate(-451.86 -451.99)"/><path class="cls-2" d="M746.92,711.29l-.42-.29Z" transform="translate(-451.86 -451.99)"/><path class="cls-2" d="M748.9,712a5,5,0,0,1-.87-.21A5.25,5.25,0,0,0,748.9,712Z" transform="translate(-451.86 -451.99)"/><path class="cls-2" d="M749.72,712.11h0l-.22,0Z" transform="translate(-451.86 -451.99)"/><path class="cls-2" d="M744.46,673.25,689.64,502.6l54.82,95v-1.41a5.28,5.28,0,0,1,.7-2.63l4.56-7.9-71.06-123.1-4.55-7.89a5.27,5.27,0,0,0-4.66-2.62,5,5,0,0,0-1.2.16c-.09,0-.18.06-.27.09a4.23,4.23,0,0,0-.57.19c-.11.05-.21.12-.32.18l-.3.17a4.56,4.56,0,0,0-.92.7s0,0,0,0a4.66,4.66,0,0,0-.75,1c-.06.09-.11.19-.16.28a6,6,0,0,0-.42,1,.78.78,0,0,1,0,.14,5.4,5.4,0,0,0-.15,1.2c0,.1,0,.2,0,.3a5.25,5.25,0,0,0,.12,1c0,.1,0,.2.07.3l0,.16,80.18,249.59s0,.08,0,.12a5.29,5.29,0,0,1-.3-1.73Z" transform="translate(-451.86 -451.99)"/><path class="cls-2" d="M746.22,710.76c-.12-.12-.25-.23-.36-.36C746,710.53,746.1,710.64,746.22,710.76Z" transform="translate(-451.86 -451.99)"/><path class="cls-2" d="M750.54,712.05h0a4.07,4.07,0,0,1-.61.05C750.14,712.08,750.34,712.08,750.54,712.05Z" transform="translate(-451.86 -451.99)"/><path class="cls-2" d="M745.62,710.13c-.11-.14-.2-.28-.3-.42C745.42,709.85,745.51,710,745.62,710.13Z" transform="translate(-451.86 -451.99)"/><path class="cls-2" d="M745.13,709.39c-.08-.14-.15-.3-.22-.45C745,709.09,745.05,709.25,745.13,709.39Z" transform="translate(-451.86 -451.99)"/><path class="cls-2" d="M752.52,711.29a3.14,3.14,0,0,1-.31.18A3.14,3.14,0,0,0,752.52,711.29Z" transform="translate(-451.86 -451.99)"/><path class="cls-2" d="M754.32,709.4l-.19.3Z" transform="translate(-451.86 -451.99)"/><path class="cls-2" d="M753.82,710.13l-.23.27Z" transform="translate(-451.86 -451.99)"/><path class="cls-2" d="M754.69,708.58l-.15.35Z" transform="translate(-451.86 -451.99)"/><path class="cls-2" d="M751.69,711.71l-.28.12Z" transform="translate(-451.86 -451.99)"/><path class="cls-2" d="M753.22,710.76,753,711Z" transform="translate(-451.86 -451.99)"/><polygon class="cls-1" points="303.13 221.25 357.95 50.6 303.13 145.57 303.13 221.25"/><path class="cls-2" d="M835,458.4a5.15,5.15,0,0,0,.12-.95c0-.1,0-.21,0-.31a4.88,4.88,0,0,0-.16-1.2.78.78,0,0,0,0-.14,5.58,5.58,0,0,0-.41-1,2.26,2.26,0,0,0-.16-.26,4.47,4.47,0,0,0-.75-1s0,0,0,0a5.2,5.2,0,0,0-.92-.7l-.3-.17c-.11-.06-.21-.13-.32-.18a4.43,4.43,0,0,0-.58-.2l-.26-.08A4.59,4.59,0,0,0,830,452a5.24,5.24,0,0,0-4.64,2.62l-4.56,7.89-71.06,123.1-4.56,7.9a5.28,5.28,0,0,0-.7,2.63v110.7a5.29,5.29,0,0,0,.3,1.73c0,.12.1.24.15.36s.14.31.22.45l.19.32c.1.14.19.28.3.42l.24.27c.11.13.24.24.36.36l.28.24.42.29.31.18a4.9,4.9,0,0,0,.52.24l.28.12a5,5,0,0,0,.87.21h0c.2,0,.4,0,.59,0l.22,0h0l.21,0a4.07,4.07,0,0,0,.61-.05,5.14,5.14,0,0,0,.86-.21l.28-.12a3.08,3.08,0,0,0,.52-.24,3.14,3.14,0,0,0,.31-.18c.15-.1.29-.19.43-.3l.27-.23a4.21,4.21,0,0,0,.37-.36l.23-.27c.11-.14.21-.28.31-.43l.19-.3c.08-.15.15-.31.22-.47l.15-.35a.61.61,0,0,1,0-.12l80.17-249.59c0-.05,0-.11,0-.16S835,458.51,835,458.4ZM755,673.25V597.56l54.82-95Z" transform="translate(-451.86 -451.99)"/></g></g><g id="nave7"><g id="nave7-2" data-name="nave7"><polygon class="cls-1" points="181.73 181.73 144.94 44.44 44.44 144.94 181.73 181.73"/><path class="cls-2" d="M483.58,604.25l-.26-.17Z" transform="translate(-451.86 -451.99)"/><path class="cls-2" d="M481.49,597.22c0-.08.07-.17.12-.25C481.56,597.05,481.53,597.14,481.49,597.22Z" transform="translate(-451.86 -451.99)"/><path class="cls-2" d="M482.55,603.49c-.07-.07-.15-.13-.21-.2Z" transform="translate(-451.86 -451.99)"/><path class="cls-2" d="M603.15,482.47l.2.22Z" transform="translate(-451.86 -451.99)"/><path class="cls-2" d="M599.46,481h0Z" transform="translate(-451.86 -451.99)"/><path class="cls-2" d="M600.88,481.18l-.14,0,.3.09Z" transform="translate(-451.86 -451.99)"/><path class="cls-2" d="M603.94,483.46c.06.09.12.17.17.26C604.06,483.63,604,483.55,603.94,483.46Z" transform="translate(-451.86 -451.99)"/><path class="cls-2" d="M487.49,594.57l8.81,2.36L596.79,496.44l-2.36-8.81a5.25,5.25,0,0,1,1.43-5.14l-.07.05L482.41,595.93l-.06.08A5.24,5.24,0,0,1,487.49,594.57Z" transform="translate(-451.86 -451.99)"/><path class="cls-2" d="M602.05,481.67l.14.06Z" transform="translate(-451.86 -451.99)"/><path class="cls-2" d="M598,481.26l.33-.1Z" transform="translate(-451.86 -451.99)"/><path class="cls-2" d="M480.87,599.65v0Z" transform="translate(-451.86 -451.99)"/><path class="cls-2" d="M481,601c0,.05,0,.1.07.16l-.09-.31A.77.77,0,0,1,481,601Z" transform="translate(-451.86 -451.99)"/><path class="cls-2" d="M481.6,602.33a1,1,0,0,1-.07-.15A1,1,0,0,0,481.6,602.33Z" transform="translate(-451.86 -451.99)"/><path class="cls-2" d="M481,598.45c0-.11.06-.23.1-.34C481.08,598.23,481.05,598.34,481,598.45Z" transform="translate(-451.86 -451.99)"/><path class="cls-2" d="M596.84,481.75a1.79,1.79,0,0,1,.24-.12A1.79,1.79,0,0,0,596.84,481.75Z" transform="translate(-451.86 -451.99)"/><polygon class="cls-1" points="239.97 247.41 186.45 193.9 80.54 165.51 239.97 247.41"/><path class="cls-2" d="M721.35,724.28a4.81,4.81,0,0,1-.53.2A4.81,4.81,0,0,0,721.35,724.28Z" transform="translate(-451.86 -451.99)"/><path class="cls-2" d="M720.47,724.56a4.59,4.59,0,0,1-.51.1A4.59,4.59,0,0,0,720.47,724.56Z" transform="translate(-451.86 -451.99)"/><path class="cls-2" d="M722.4,723.7a4.61,4.61,0,0,1-.77.46A4.61,4.61,0,0,0,722.4,723.7Z" transform="translate(-451.86 -451.99)"/><path class="cls-2" d="M723,723.17h0l-.17.14Z" transform="translate(-451.86 -451.99)"/><path class="cls-2" d="M691.83,699.41,532.4,617.51l105.91,28.38-1-1a5.35,5.35,0,0,1-1.36-2.36l-2.36-8.81L496.3,596.93l-8.81-2.36a5.24,5.24,0,0,0-5.14,1.44,5.34,5.34,0,0,0-.74,1c-.05.08-.08.17-.12.25a3.89,3.89,0,0,0-.27.54,2.3,2.3,0,0,0-.1.35c0,.11-.07.23-.1.34a5.57,5.57,0,0,0-.15,1.14v.06a5.51,5.51,0,0,0,.15,1.22l.09.31a5.16,5.16,0,0,0,.42,1,1,1,0,0,0,.07.15,5.13,5.13,0,0,0,.74,1c.06.07.14.13.21.2a5.42,5.42,0,0,0,.77.59l.26.17.14.09L716.9,724.13l.12,0a5.22,5.22,0,0,1-1.44-1Z" transform="translate(-451.86 -451.99)"/><path class="cls-2" d="M719.6,724.69h0Z" transform="translate(-451.86 -451.99)"/><path class="cls-2" d="M723.56,722.55h0a5.72,5.72,0,0,1-.4.46A4.19,4.19,0,0,0,723.56,722.55Z" transform="translate(-451.86 -451.99)"/><path class="cls-2" d="M718.73,724.67l-.51-.09Z" transform="translate(-451.86 -451.99)"/><path class="cls-2" d="M717.86,724.5l-.48-.17Z" transform="translate(-451.86 -451.99)"/><path class="cls-2" d="M724.43,720.61c0,.11,0,.23-.09.35C724.38,720.84,724.4,720.72,724.43,720.61Z" transform="translate(-451.86 -451.99)"/><path class="cls-2" d="M724.36,718c0,.12.06.23.08.35C724.42,718.23,724.39,718.12,724.36,718Z" transform="translate(-451.86 -451.99)"/><path class="cls-2" d="M724.53,718.87c0,.12,0,.23,0,.35C724.55,719.1,724.54,719,724.53,718.87Z" transform="translate(-451.86 -451.99)"/><path class="cls-2" d="M724,717.16c.06.12.1.24.15.36C724.14,717.4,724.1,717.28,724,717.16Z" transform="translate(-451.86 -451.99)"/><path class="cls-2" d="M724.14,721.49a2.36,2.36,0,0,1-.12.28A2.36,2.36,0,0,0,724.14,721.49Z" transform="translate(-451.86 -451.99)"/><path class="cls-2" d="M724.55,719.74l0,.36Z" transform="translate(-451.86 -451.99)"/><polygon class="cls-1" points="247.41 239.97 165.51 80.54 193.9 186.45 247.41 239.97"/><path class="cls-2" d="M603.94,483.46a4.91,4.91,0,0,0-.59-.77l-.2-.22a6.15,6.15,0,0,0-1-.74l-.14-.06a4.69,4.69,0,0,0-1-.42l-.3-.09a5.6,5.6,0,0,0-1.23-.16h0a5,5,0,0,0-1.15.15l-.33.1-.36.09a5.52,5.52,0,0,0-.54.28,1.79,1.79,0,0,0-.24.12,5.14,5.14,0,0,0-1,.74,5.25,5.25,0,0,0-1.43,5.14l2.36,8.81,36.8,137.29,2.36,8.81a5.35,5.35,0,0,0,1.36,2.36l1,1,53.52,53.52,23.75,23.76a5.22,5.22,0,0,0,1.44,1l.36.15.48.17.36.08.51.09.35,0h.52l.36,0a4.59,4.59,0,0,0,.51-.1l.35-.08a4.81,4.81,0,0,0,.53-.2,2.36,2.36,0,0,0,.28-.12,4.61,4.61,0,0,0,.77-.46h0a4.19,4.19,0,0,0,.45-.39l.17-.14h0c.05-.06.09-.12.14-.17a5.72,5.72,0,0,0,.4-.46,5.35,5.35,0,0,0,.45-.77,2.36,2.36,0,0,0,.12-.28,4.81,4.81,0,0,0,.2-.53c0-.12.06-.24.09-.35s.07-.34.09-.51l0-.36a4.51,4.51,0,0,0,0-.52c0-.12,0-.23,0-.35a4.71,4.71,0,0,0-.09-.52c0-.12-.05-.23-.08-.35s-.11-.32-.17-.48-.09-.24-.15-.36l0-.12L604.2,483.86l-.09-.14C604.06,483.63,604,483.55,603.94,483.46ZM699.27,692l-53.52-53.51L617.37,532.54Z" transform="translate(-451.86 -451.99)"/></g></g><g id="nave6"><g id="nave6-2" data-name="nave6"><polygon class="cls-1" points="133.63 297.87 10.53 226.81 10.53 368.93 133.63 297.87"/><path class="cls-2" d="M458.57,835.09l-.3.06Z" transform="translate(-451.86 -451.99)"/><path class="cls-2" d="M452.12,831.6a2.67,2.67,0,0,1-.09-.26A2.67,2.67,0,0,0,452.12,831.6Z" transform="translate(-451.86 -451.99)"/><path class="cls-2" d="M457.31,835.28h0Z" transform="translate(-451.86 -451.99)"/><path class="cls-2" d="M457,664.44c.1,0,.2,0,.3,0C457.21,664.44,457.11,664.43,457,664.44Z" transform="translate(-451.86 -451.99)"/><path class="cls-2" d="M453.36,666l0,0Z" transform="translate(-451.86 -451.99)"/><path class="cls-2" d="M454.49,665.13l-.11.08.27-.15Z" transform="translate(-451.86 -451.99)"/><path class="cls-2" d="M458.27,664.57l.3.07Z" transform="translate(-451.86 -451.99)"/><path class="cls-2" d="M454.49,825.48l7.9-4.56V678.8l-7.9-4.56a5.24,5.24,0,0,1-2.62-4.64s0,.06,0,.08V830s0,.06,0,.09A5.26,5.26,0,0,1,454.49,825.48Z" transform="translate(-451.86 -451.99)"/><path class="cls-2" d="M455.66,664.64l.14,0Z" transform="translate(-451.86 -451.99)"/><path class="cls-2" d="M452.49,667.23a2.91,2.91,0,0,1,.17-.3C452.6,667,452.54,667.13,452.49,667.23Z" transform="translate(-451.86 -451.99)"/><path class="cls-2" d="M453.4,833.76a.1.1,0,0,1,0,0A.1.1,0,0,0,453.4,833.76Z" transform="translate(-451.86 -451.99)"/><path class="cls-2" d="M454.49,834.6l.16.07-.28-.16Z" transform="translate(-451.86 -451.99)"/><path class="cls-2" d="M455.81,835.13l-.15,0Z" transform="translate(-451.86 -451.99)"/><path class="cls-2" d="M452.66,832.8a3.07,3.07,0,0,1-.17-.31A3.07,3.07,0,0,0,452.66,832.8Z" transform="translate(-451.86 -451.99)"/><path class="cls-2" d="M452,668.38c0-.08.06-.17.08-.25C452.09,668.22,452.05,668.3,452,668.38Z" transform="translate(-451.86 -451.99)"/><polygon class="cls-1" points="221.25 303.13 145.57 303.13 50.6 357.95 221.25 303.13"/><path class="cls-2" d="M711.57,751.83a4.09,4.09,0,0,1-.23.52A4.09,4.09,0,0,0,711.57,751.83Z" transform="translate(-451.86 -451.99)"/><path class="cls-2" d="M711.15,752.66a4.43,4.43,0,0,1-.29.42A4.43,4.43,0,0,0,711.15,752.66Z" transform="translate(-451.86 -451.99)"/><path class="cls-2" d="M711.91,750.69a6.38,6.38,0,0,1-.22.86A5.17,5.17,0,0,0,711.91,750.69Z" transform="translate(-451.86 -451.99)"/><path class="cls-2" d="M712,749.87h0a1.5,1.5,0,0,1,0,.22A1.49,1.49,0,0,0,712,749.87Z" transform="translate(-451.86 -451.99)"/><path class="cls-2" d="M673.11,755.13,502.46,810l95-54.82H596a5.29,5.29,0,0,1-2.63-.71l-7.9-4.56L462.39,820.92l-7.9,4.56a5.26,5.26,0,0,0-2.62,4.65,5.5,5.5,0,0,0,.16,1.21,2.67,2.67,0,0,0,.09.26,5.44,5.44,0,0,0,.19.57,3.3,3.3,0,0,0,.18.32,3.07,3.07,0,0,0,.17.31,5.24,5.24,0,0,0,.7.91.1.1,0,0,0,0,0,5,5,0,0,0,1,.75l.28.16a5.22,5.22,0,0,0,1,.41l.15,0a5.34,5.34,0,0,0,1.2.16h.3a4.52,4.52,0,0,0,1-.13l.3-.06.16,0,249.59-80.17.12-.06a5,5,0,0,1-1.73.31Z" transform="translate(-451.86 -451.99)"/><path class="cls-2" d="M710.62,753.36a4.17,4.17,0,0,1-.36.37A4.17,4.17,0,0,0,710.62,753.36Z" transform="translate(-451.86 -451.99)"/><path class="cls-2" d="M711.91,749.05h0c0,.2,0,.4.05.6C712,749.45,711.94,749.25,711.91,749.05Z" transform="translate(-451.86 -451.99)"/><path class="cls-2" d="M710,754l-.42.3Z" transform="translate(-451.86 -451.99)"/><path class="cls-2" d="M709.26,754.46l-.46.22Z" transform="translate(-451.86 -451.99)"/><path class="cls-2" d="M711.15,747.06c.06.11.13.21.19.31C711.28,747.26,711.21,747.17,711.15,747.06Z" transform="translate(-451.86 -451.99)"/><path class="cls-2" d="M709.26,745.27l.3.19Z" transform="translate(-451.86 -451.99)"/><path class="cls-2" d="M710,745.76l.27.23Z" transform="translate(-451.86 -451.99)"/><path class="cls-2" d="M708.44,744.9l.36.15Z" transform="translate(-451.86 -451.99)"/><path class="cls-2" d="M711.57,747.89c0,.1.09.19.12.28C711.66,748.08,711.61,748,711.57,747.89Z" transform="translate(-451.86 -451.99)"/><path class="cls-2" d="M710.62,746.36l.24.28Z" transform="translate(-451.86 -451.99)"/><polygon class="cls-1" points="221.25 292.6 50.6 237.78 145.57 292.6 221.25 292.6"/><path class="cls-2" d="M458.27,664.57a6.32,6.32,0,0,0-1-.13c-.1,0-.2,0-.3,0a4.89,4.89,0,0,0-1.21.15l-.14,0a5.25,5.25,0,0,0-1,.42l-.27.15a5.53,5.53,0,0,0-1,.75l0,0a4.56,4.56,0,0,0-.7.92,2.91,2.91,0,0,0-.17.3c-.06.11-.13.21-.18.32a4.43,4.43,0,0,0-.2.58c0,.08-.06.17-.08.25a5.17,5.17,0,0,0-.16,1.22,5.24,5.24,0,0,0,2.62,4.64l7.9,4.56,123.09,71.06,7.9,4.56a5.29,5.29,0,0,0,2.63.71h110.7a5,5,0,0,0,1.73-.31l.36-.14.46-.22.31-.2.42-.3.27-.23a4.17,4.17,0,0,0,.36-.37l.24-.28a4.43,4.43,0,0,0,.29-.42c.06-.1.13-.2.19-.31a4.09,4.09,0,0,0,.23-.52,2.36,2.36,0,0,0,.12-.28,6.38,6.38,0,0,0,.22-.86h0a4,4,0,0,0,0-.6,1.5,1.5,0,0,0,0-.22h0c0-.07,0-.14,0-.22s0-.4-.05-.6a5,5,0,0,0-.22-.87c0-.09-.08-.18-.12-.28a4.83,4.83,0,0,0-.23-.52c-.06-.1-.13-.2-.19-.31l-.29-.42-.24-.28a4.17,4.17,0,0,0-.36-.37l-.27-.23a3.3,3.3,0,0,0-.43-.3l-.3-.19-.46-.22-.36-.15-.12,0L458.73,664.67a.9.9,0,0,0-.16,0Zm214.84,80H597.42l-95-54.82Z" transform="translate(-451.86 -451.99)"/></g></g><g id="nave5"><g id="nave5-2" data-name="nave5"><polygon class="cls-1" points="181.73 414 44.44 450.8 144.94 551.29 181.73 414"/><path class="cls-2" d="M604.11,1016l-.16.26Z" transform="translate(-451.86 -451.99)"/><path class="cls-2" d="M597.09,1018.1l-.26-.12Z" transform="translate(-451.86 -451.99)"/><path class="cls-2" d="M603.35,1017l-.2.22Z" transform="translate(-451.86 -451.99)"/><path class="cls-2" d="M482.34,896.44a2.23,2.23,0,0,1,.22-.21Z" transform="translate(-451.86 -451.99)"/><path class="cls-2" d="M480.87,900.13v0Z" transform="translate(-451.86 -451.99)"/><path class="cls-2" d="M481,898.71s0,.09,0,.14c0-.1.05-.2.08-.3C481.09,898.6,481.06,898.65,481,898.71Z" transform="translate(-451.86 -451.99)"/><path class="cls-2" d="M483.32,895.64l.26-.17Z" transform="translate(-451.86 -451.99)"/><path class="cls-2" d="M594.43,1012.09l2.36-8.8L496.3,902.79l-8.81,2.37a5.27,5.27,0,0,1-5.13-1.43l.05.06,113.38,113.39.08.06A5.27,5.27,0,0,1,594.43,1012.09Z" transform="translate(-451.86 -451.99)"/><path class="cls-2" d="M481.53,897.54a.61.61,0,0,1,.07-.14A.61.61,0,0,0,481.53,897.54Z" transform="translate(-451.86 -451.99)"/><path class="cls-2" d="M481.12,901.61c0-.11-.07-.22-.1-.33C481.05,901.39,481.08,901.5,481.12,901.61Z" transform="translate(-451.86 -451.99)"/><path class="cls-2" d="M599.52,1018.72h0Z" transform="translate(-451.86 -451.99)"/><path class="cls-2" d="M600.88,1018.54c.06,0,.1,0,.16-.06l-.3.08A.78.78,0,0,0,600.88,1018.54Z" transform="translate(-451.86 -451.99)"/><path class="cls-2" d="M602.19,1018l-.14.07Z" transform="translate(-451.86 -451.99)"/><path class="cls-2" d="M598.31,1018.56l-.34-.09Z" transform="translate(-451.86 -451.99)"/><path class="cls-2" d="M481.61,902.75c-.05-.08-.08-.16-.12-.24C481.53,902.59,481.56,902.67,481.61,902.75Z" transform="translate(-451.86 -451.99)"/><polygon class="cls-1" points="247.41 355.77 193.9 409.28 165.51 515.19 247.41 355.77"/><path class="cls-2" d="M724.14,778.23a3.93,3.93,0,0,1,.2.54A3.93,3.93,0,0,0,724.14,778.23Z" transform="translate(-451.86 -451.99)"/><path class="cls-2" d="M724.43,779.12c0,.17.07.33.09.5C724.5,779.45,724.46,779.29,724.43,779.12Z" transform="translate(-451.86 -451.99)"/><path class="cls-2" d="M723.57,777.19a5.84,5.84,0,0,1,.45.76A5.84,5.84,0,0,0,723.57,777.19Z" transform="translate(-451.86 -451.99)"/><path class="cls-2" d="M723,776.56h0l.14.16Z" transform="translate(-451.86 -451.99)"/><path class="cls-2" d="M699.27,807.76l-81.9,159.43,28.39-105.91-1,1a5.27,5.27,0,0,1-2.36,1.37L633.59,866l-36.8,137.29-2.36,8.8a5.27,5.27,0,0,0,1.44,5.15,5.34,5.34,0,0,0,1,.74l.26.12a4.39,4.39,0,0,0,.53.27l.35.1.34.09a5.69,5.69,0,0,0,1.15.16h.06a5,5,0,0,0,1.22-.16l.3-.08a6,6,0,0,0,1-.42l.14-.07a6.15,6.15,0,0,0,1-.74l.2-.22a5.11,5.11,0,0,0,.6-.77l.16-.26.09-.14L724,782.69s0-.09,0-.13a5.22,5.22,0,0,1-1,1.44Z" transform="translate(-451.86 -451.99)"/><path class="cls-2" d="M724.55,780a4.34,4.34,0,0,1,0,.51A4.34,4.34,0,0,0,724.55,780Z" transform="translate(-451.86 -451.99)"/><path class="cls-2" d="M722.41,776h0c.16.12.31.26.46.39A4.11,4.11,0,0,0,722.41,776Z" transform="translate(-451.86 -451.99)"/><path class="cls-2" d="M724.53,780.86a4.54,4.54,0,0,1-.09.51A4.54,4.54,0,0,0,724.53,780.86Z" transform="translate(-451.86 -451.99)"/><path class="cls-2" d="M724.36,781.73c-.05.16-.11.32-.17.47C724.25,782.05,724.31,781.89,724.36,781.73Z" transform="translate(-451.86 -451.99)"/><path class="cls-2" d="M720.47,775.16l.35.08Z" transform="translate(-451.86 -451.99)"/><path class="cls-2" d="M717.86,775.23l.35-.09Z" transform="translate(-451.86 -451.99)"/><path class="cls-2" d="M718.73,775.06l.35,0Z" transform="translate(-451.86 -451.99)"/><path class="cls-2" d="M717,775.55l.36-.15Z" transform="translate(-451.86 -451.99)"/><path class="cls-2" d="M721.35,775.45l.29.11Z" transform="translate(-451.86 -451.99)"/><path class="cls-2" d="M719.6,775a2.19,2.19,0,0,1,.36,0A2.19,2.19,0,0,0,719.6,775Z" transform="translate(-451.86 -451.99)"/><polygon class="cls-1" points="239.97 348.32 80.54 430.22 186.45 401.84 239.97 348.32"/><path class="cls-2" d="M483.32,895.64a5,5,0,0,0-.76.59,2.23,2.23,0,0,0-.22.21,4.56,4.56,0,0,0-.74,1,.61.61,0,0,0-.07.14,5.25,5.25,0,0,0-.42,1c0,.1-.06.2-.08.3a5,5,0,0,0-.16,1.22v.06a5.11,5.11,0,0,0,.15,1.15c0,.11.06.22.1.33a2,2,0,0,0,.1.35,3.51,3.51,0,0,0,.27.55c0,.08.07.16.12.24a5.1,5.1,0,0,0,.75,1,5.27,5.27,0,0,0,5.13,1.43l8.81-2.37L633.59,866l8.81-2.36a5.27,5.27,0,0,0,2.36-1.37l1-1,53.51-53.52L723,784a5.22,5.22,0,0,0,1-1.44,3.88,3.88,0,0,0,.15-.36c.06-.15.12-.31.17-.47s.06-.24.08-.36a4.54,4.54,0,0,0,.09-.51c0-.12,0-.24,0-.36a4.34,4.34,0,0,0,0-.51c0-.12,0-.24,0-.37s-.06-.33-.09-.5a3.58,3.58,0,0,0-.09-.35,3.93,3.93,0,0,0-.2-.54c0-.09-.07-.19-.12-.28a5.84,5.84,0,0,0-.45-.76h0a4.31,4.31,0,0,0-.39-.46l-.14-.16h0l-.17-.14c-.15-.13-.3-.27-.46-.39a5,5,0,0,0-.76-.46l-.29-.11a4.87,4.87,0,0,0-.53-.21l-.35-.08-.51-.09a2.19,2.19,0,0,0-.36,0h-.52l-.35,0-.52.08-.35.09a3.06,3.06,0,0,0-.48.17l-.36.15-.12.05L483.72,895.39l-.14.08Zm208.51-95.32-53.52,53.51L532.4,882.22Z" transform="translate(-451.86 -451.99)"/></g></g><g id="nave4"><g id="nave4-2" data-name="nave4"><polygon class="cls-1" points="297.87 462.11 226.81 585.21 368.93 585.21 297.87 462.11"/><path class="cls-2" d="M835,1041c0,.1,0,.2.07.3C835,1041.22,835,1041.12,835,1041Z" transform="translate(-451.86 -451.99)"/><path class="cls-2" d="M831.47,1047.47l-.27.09Z" transform="translate(-451.86 -451.99)"/><path class="cls-2" d="M835.14,1042.28c0,.1,0,.2,0,.3C835.15,1042.48,835.15,1042.38,835.14,1042.28Z" transform="translate(-451.86 -451.99)"/><path class="cls-2" d="M664.3,1042.58c0-.1,0-.2,0-.3C664.3,1042.38,664.3,1042.48,664.3,1042.58Z" transform="translate(-451.86 -451.99)"/><path class="cls-2" d="M665.87,1046.22l0,0Z" transform="translate(-451.86 -451.99)"/><path class="cls-2" d="M665,1045.1s.06.07.08.11l-.15-.27S665,1045.05,665,1045.1Z" transform="translate(-451.86 -451.99)"/><path class="cls-2" d="M664.43,1041.32c0-.1,0-.2.07-.3C664.47,1041.12,664.45,1041.22,664.43,1041.32Z" transform="translate(-451.86 -451.99)"/><path class="cls-2" d="M825.34,1045.1l-4.56-7.9H678.67l-4.56,7.9a5.27,5.27,0,0,1-4.65,2.62H830A5.28,5.28,0,0,1,825.34,1045.1Z" transform="translate(-451.86 -451.99)"/><path class="cls-2" d="M664.5,1043.93a.88.88,0,0,0,0-.15A.88.88,0,0,1,664.5,1043.93Z" transform="translate(-451.86 -451.99)"/><path class="cls-2" d="M667.09,1047.1l-.3-.17Z" transform="translate(-451.86 -451.99)"/><path class="cls-2" d="M833.62,1046.19l0,0Z" transform="translate(-451.86 -451.99)"/><path class="cls-2" d="M834.46,1045.1s0-.11.07-.17a2.54,2.54,0,0,1-.16.28A.87.87,0,0,0,834.46,1045.1Z" transform="translate(-451.86 -451.99)"/><path class="cls-2" d="M835,1043.78a.88.88,0,0,1,0,.15A.88.88,0,0,0,835,1043.78Z" transform="translate(-451.86 -451.99)"/><path class="cls-2" d="M832.66,1046.93l-.31.17Z" transform="translate(-451.86 -451.99)"/><path class="cls-2" d="M668.25,1047.56l-.26-.09Z" transform="translate(-451.86 -451.99)"/><polygon class="cls-1" points="303.13 374.48 303.13 450.17 357.95 545.13 303.13 374.48"/><path class="cls-2" d="M751.7,788c.17.08.35.15.52.24C752.05,788.16,751.87,788.09,751.7,788Z" transform="translate(-451.86 -451.99)"/><path class="cls-2" d="M752.52,788.44a4,4,0,0,1,.43.29A4,4,0,0,0,752.52,788.44Z" transform="translate(-451.86 -451.99)"/><path class="cls-2" d="M750.55,787.68a4.71,4.71,0,0,1,.86.22A5.17,5.17,0,0,0,750.55,787.68Z" transform="translate(-451.86 -451.99)"/><path class="cls-2" d="M749.73,787.61h0l.22,0Z" transform="translate(-451.86 -451.99)"/><path class="cls-2" d="M755,826.48l54.82,170.64-54.82-95v1.41a5.16,5.16,0,0,1-.71,2.63l-4.56,7.9,71.06,123.1,4.56,7.9a5.28,5.28,0,0,0,4.66,2.62,5.49,5.49,0,0,0,1.2-.16l.27-.09a5.27,5.27,0,0,0,.56-.19,2.43,2.43,0,0,0,.32-.18l.31-.17a6.37,6.37,0,0,0,.92-.7l0,0a5,5,0,0,0,.75-1,2.54,2.54,0,0,0,.16-.28,5.13,5.13,0,0,0,.41-1,.88.88,0,0,0,0-.15,4.82,4.82,0,0,0,.16-1.2c0-.1,0-.2,0-.3a5.25,5.25,0,0,0-.12-1c0-.1,0-.2-.07-.3s0-.11,0-.17L754.74,791.27a.61.61,0,0,1,0-.12,5.2,5.2,0,0,1,.3,1.73Z" transform="translate(-451.86 -451.99)"/><path class="cls-2" d="M753.23,789c.12.11.25.23.36.35C753.48,789.2,753.35,789.08,753.23,789Z" transform="translate(-451.86 -451.99)"/><path class="cls-2" d="M748.91,787.68h0a6,6,0,0,1,.61,0C749.31,787.64,749.11,787.65,748.91,787.68Z" transform="translate(-451.86 -451.99)"/><path class="cls-2" d="M753.83,789.6l.3.42Z" transform="translate(-451.86 -451.99)"/><path class="cls-2" d="M754.32,790.33c.08.15.15.3.22.46C754.47,790.63,754.4,790.48,754.32,790.33Z" transform="translate(-451.86 -451.99)"/><path class="cls-2" d="M746.93,788.44l.3-.19Z" transform="translate(-451.86 -451.99)"/><path class="cls-2" d="M745.13,790.33a3.21,3.21,0,0,1,.19-.31A3.21,3.21,0,0,0,745.13,790.33Z" transform="translate(-451.86 -451.99)"/><path class="cls-2" d="M745.63,789.59l.22-.26Z" transform="translate(-451.86 -451.99)"/><path class="cls-2" d="M744.76,791.15c0-.13.1-.24.15-.36C744.86,790.91,744.81,791,744.76,791.15Z" transform="translate(-451.86 -451.99)"/><path class="cls-2" d="M747.75,788l.29-.11Z" transform="translate(-451.86 -451.99)"/><path class="cls-2" d="M746.23,789l.27-.23Z" transform="translate(-451.86 -451.99)"/><polygon class="cls-1" points="292.6 374.48 237.78 545.13 292.6 450.17 292.6 374.48"/><path class="cls-2" d="M664.43,1041.32a5.25,5.25,0,0,0-.12,1c0,.1,0,.2,0,.3a5.33,5.33,0,0,0,.15,1.2.88.88,0,0,1,0,.15,6,6,0,0,0,.42,1l.15.27a5.48,5.48,0,0,0,.76,1l0,0a5.36,5.36,0,0,0,.92.71l.3.17c.11.06.21.13.32.18s.39.13.58.19l.26.09a5.58,5.58,0,0,0,1.21.16,5.27,5.27,0,0,0,4.65-2.62l4.56-7.9,71.05-123.1,4.56-7.9a5.16,5.16,0,0,0,.71-2.63V792.88a5.2,5.2,0,0,0-.3-1.73l-.15-.36c-.07-.16-.14-.31-.22-.46s-.13-.21-.19-.31l-.3-.42-.24-.28c-.11-.12-.24-.24-.36-.35l-.28-.24a4,4,0,0,0-.43-.29l-.3-.19c-.17-.09-.35-.16-.52-.24l-.29-.11a4.71,4.71,0,0,0-.86-.22h0c-.2,0-.4,0-.6,0l-.22,0h0l-.21,0a6,6,0,0,0-.61,0,4.93,4.93,0,0,0-.86.22l-.29.11c-.17.08-.35.15-.52.24l-.3.19a4,4,0,0,0-.43.29l-.27.23c-.13.12-.26.24-.38.37l-.22.26c-.11.14-.21.28-.31.43a3.21,3.21,0,0,0-.19.31c-.08.15-.15.3-.22.46s-.1.23-.15.36a.61.61,0,0,1,0,.12l-80.18,249.58,0,.17C664.47,1041.12,664.45,1041.22,664.43,1041.32Zm80-214.84v75.68l-54.82,95Z" transform="translate(-451.86 -451.99)"/></g></g><g id="nave3"><g id="nave3-2" data-name="nave3"><polygon class="cls-1" points="414 414 450.8 551.29 551.29 450.8 414 414"/><path class="cls-2" d="M1015.87,895.48l.25.16Z" transform="translate(-451.86 -451.99)"/><path class="cls-2" d="M1018,902.5l-.12.25A1.92,1.92,0,0,0,1018,902.5Z" transform="translate(-451.86 -451.99)"/><path class="cls-2" d="M1016.89,896.23l.22.21Z" transform="translate(-451.86 -451.99)"/><path class="cls-2" d="M896.3,1017.25l-.21-.22Z" transform="translate(-451.86 -451.99)"/><path class="cls-2" d="M900,1018.72h0Z" transform="translate(-451.86 -451.99)"/><path class="cls-2" d="M898.57,1018.54l.14,0-.3-.08C898.47,1018.49,898.51,1018.53,898.57,1018.54Z" transform="translate(-451.86 -451.99)"/><path class="cls-2" d="M895.51,1016.27c-.06-.09-.12-.18-.17-.27C895.39,1016.09,895.45,1016.18,895.51,1016.27Z" transform="translate(-451.86 -451.99)"/><path class="cls-2" d="M1012,905.15l-8.81-2.36-100.49,100.5,2.36,8.8a5.26,5.26,0,0,1-1.43,5.14l.06-.05L1017,903.79l.06-.07A5.24,5.24,0,0,1,1012,905.15Z" transform="translate(-451.86 -451.99)"/><path class="cls-2" d="M897.4,1018.06l-.14-.07Z" transform="translate(-451.86 -451.99)"/><path class="cls-2" d="M901.47,1018.47l-.33.09Z" transform="translate(-451.86 -451.99)"/><path class="cls-2" d="M1018.58,900.07v0Z" transform="translate(-451.86 -451.99)"/><path class="cls-2" d="M1018.4,898.71c0-.06,0-.11-.06-.17,0,.11.06.21.08.31A.59.59,0,0,0,1018.4,898.71Z" transform="translate(-451.86 -451.99)"/><path class="cls-2" d="M1017.85,897.4s0,.09.07.14S1017.88,897.44,1017.85,897.4Z" transform="translate(-451.86 -451.99)"/><path class="cls-2" d="M1018.43,901.27c0,.12-.07.23-.1.34A3.37,3.37,0,0,0,1018.43,901.27Z" transform="translate(-451.86 -451.99)"/><path class="cls-2" d="M902.61,1018l-.24.12Z" transform="translate(-451.86 -451.99)"/><polygon class="cls-1" points="355.77 348.32 409.28 401.84 515.19 430.22 355.77 348.32"/><path class="cls-2" d="M778.1,775.44l.53-.2Z" transform="translate(-451.86 -451.99)"/><path class="cls-2" d="M779,775.16l.51-.09Z" transform="translate(-451.86 -451.99)"/><path class="cls-2" d="M777.05,776a5,5,0,0,1,.76-.46A5,5,0,0,0,777.05,776Z" transform="translate(-451.86 -451.99)"/><path class="cls-2" d="M776.42,776.55h0l.17-.15Z" transform="translate(-451.86 -451.99)"/><path class="cls-2" d="M807.62,800.32l159.43,81.9L861.14,853.83l1,1a5.29,5.29,0,0,1,1.36,2.36l2.36,8.81,137.29,36.79,8.81,2.36a5.24,5.24,0,0,0,5.14-1.43,5.08,5.08,0,0,0,.74-1l.12-.25a3.89,3.89,0,0,0,.27-.54,3.57,3.57,0,0,0,.1-.35c0-.11.07-.22.1-.34a5.57,5.57,0,0,0,.15-1.14v-.06a5,5,0,0,0-.16-1.22c0-.1,0-.2-.08-.31a5.44,5.44,0,0,0-.42-1s0-.1-.07-.14a4.92,4.92,0,0,0-.74-1l-.22-.21a5.06,5.06,0,0,0-.77-.59l-.25-.16a1.1,1.1,0,0,0-.14-.09L782.55,775.6l-.12-.05a5,5,0,0,1,1.43,1Z" transform="translate(-451.86 -451.99)"/><path class="cls-2" d="M779.85,775a4.34,4.34,0,0,1,.51,0A4.34,4.34,0,0,0,779.85,775Z" transform="translate(-451.86 -451.99)"/><path class="cls-2" d="M775.89,777.18h0a5.72,5.72,0,0,1,.4-.46A4.31,4.31,0,0,0,775.89,777.18Z" transform="translate(-451.86 -451.99)"/><path class="cls-2" d="M780.72,775.06l.51.08Z" transform="translate(-451.86 -451.99)"/><path class="cls-2" d="M781.59,775.23a3.06,3.06,0,0,1,.48.17A3.06,3.06,0,0,0,781.59,775.23Z" transform="translate(-451.86 -451.99)"/><path class="cls-2" d="M775,779.12a3.58,3.58,0,0,1,.09-.35A3.58,3.58,0,0,0,775,779.12Z" transform="translate(-451.86 -451.99)"/><path class="cls-2" d="M775.09,781.72a3.59,3.59,0,0,1-.08-.35A3.59,3.59,0,0,0,775.09,781.72Z" transform="translate(-451.86 -451.99)"/><path class="cls-2" d="M774.92,780.85l0-.35Z" transform="translate(-451.86 -451.99)"/><path class="cls-2" d="M775.41,782.56a3.68,3.68,0,0,1-.15-.35A3.68,3.68,0,0,0,775.41,782.56Z" transform="translate(-451.86 -451.99)"/><path class="cls-2" d="M775.31,778.23c0-.09.07-.19.11-.28C775.38,778,775.35,778.14,775.31,778.23Z" transform="translate(-451.86 -451.99)"/><path class="cls-2" d="M774.9,780c0-.12,0-.24,0-.35C774.91,779.74,774.91,779.86,774.9,780Z" transform="translate(-451.86 -451.99)"/><polygon class="cls-1" points="348.32 355.76 430.22 515.19 401.84 409.28 348.32 355.76"/><path class="cls-2" d="M895.51,1016.27a5.44,5.44,0,0,0,.58.76l.21.22a5.71,5.71,0,0,0,1,.74l.14.07a6,6,0,0,0,1,.42l.3.08a5,5,0,0,0,1.22.16H900a5.69,5.69,0,0,0,1.15-.16l.33-.09.36-.1c.19-.08.36-.18.54-.27l.24-.12a5.19,5.19,0,0,0,1-.75,5.26,5.26,0,0,0,1.43-5.14l-2.36-8.8L865.86,866l-2.36-8.81a5.29,5.29,0,0,0-1.36-2.36l-1-1-53.52-53.51-23.76-23.76a5,5,0,0,0-1.43-1l-.36-.15a3.06,3.06,0,0,0-.48-.17l-.36-.09-.51-.08-.36,0a4.34,4.34,0,0,0-.51,0,2.19,2.19,0,0,0-.36,0l-.51.09-.35.08-.53.2-.29.12a5,5,0,0,0-.76.46h0a5.73,5.73,0,0,0-.45.39l-.17.15h0l-.14.16a5.72,5.72,0,0,0-.4.46,7.45,7.45,0,0,0-.46.77c0,.09-.07.19-.11.28a3.5,3.5,0,0,0-.2.54,3.58,3.58,0,0,0-.09.35,4.17,4.17,0,0,0-.09.51c0,.11,0,.23,0,.35s0,.35,0,.52l0,.35a4.34,4.34,0,0,0,.09.52,3.59,3.59,0,0,0,.08.35c0,.17.11.33.17.49a3.68,3.68,0,0,0,.15.35l.05.12,119.79,233.18a1.1,1.1,0,0,0,.09.14C895.39,1016.09,895.45,1016.18,895.51,1016.27ZM800.18,807.76l53.51,53.52,28.39,105.91Z" transform="translate(-451.86 -451.99)"/></g></g><g id="nave2"><g id="nave2-2" data-name="nave2"><polygon class="cls-1" points="462.11 297.87 585.21 368.93 585.21 226.81 462.11 297.87"/><path class="cls-2" d="M1040.88,664.64l.3-.07Z" transform="translate(-451.86 -451.99)"/><path class="cls-2" d="M1047.33,668.12c0,.09.07.18.09.27C1047.4,668.3,1047.36,668.21,1047.33,668.12Z" transform="translate(-451.86 -451.99)"/><path class="cls-2" d="M1042.14,664.44c.1,0,.2,0,.3,0C1042.34,664.43,1042.24,664.44,1042.14,664.44Z" transform="translate(-451.86 -451.99)"/><path class="cls-2" d="M1042.44,835.29h0Z" transform="translate(-451.86 -451.99)"/><path class="cls-2" d="M1046.09,833.72l0,0Z" transform="translate(-451.86 -451.99)"/><path class="cls-2" d="M1045,834.6l.11-.09c-.09.06-.18.1-.27.15A1,1,0,0,0,1045,834.6Z" transform="translate(-451.86 -451.99)"/><path class="cls-2" d="M1041.18,835.15l-.3-.06Z" transform="translate(-451.86 -451.99)"/><path class="cls-2" d="M1045,674.24l-7.9,4.56V820.92l7.9,4.56a5.24,5.24,0,0,1,2.62,4.64s0,0,0-.08V669.68s0-.06,0-.09A5.26,5.26,0,0,1,1045,674.24Z" transform="translate(-451.86 -451.99)"/><path class="cls-2" d="M1043.79,835.08l-.15,0Z" transform="translate(-451.86 -451.99)"/><path class="cls-2" d="M1047,832.49a3.07,3.07,0,0,1-.17.31A3.07,3.07,0,0,0,1047,832.49Z" transform="translate(-451.86 -451.99)"/><path class="cls-2" d="M1046.05,666a.1.1,0,0,0,0,0A.1.1,0,0,1,1046.05,666Z" transform="translate(-451.86 -451.99)"/><path class="cls-2" d="M1045,665.13l-.16-.07.27.15Z" transform="translate(-451.86 -451.99)"/><path class="cls-2" d="M1043.64,664.59l.15,0Z" transform="translate(-451.86 -451.99)"/><path class="cls-2" d="M1046.79,666.93a2.91,2.91,0,0,1,.17.3C1046.91,667.13,1046.85,667,1046.79,666.93Z" transform="translate(-451.86 -451.99)"/><path class="cls-2" d="M1047.42,831.34a1.84,1.84,0,0,1-.09.25A1.84,1.84,0,0,0,1047.42,831.34Z" transform="translate(-451.86 -451.99)"/><polygon class="cls-1" points="374.48 292.6 450.17 292.6 545.13 237.78 374.48 292.6"/><path class="cls-2" d="M787.88,747.89a4.83,4.83,0,0,1,.23-.52A4.83,4.83,0,0,0,787.88,747.89Z" transform="translate(-451.86 -451.99)"/><path class="cls-2" d="M788.3,747.06c.09-.14.19-.29.29-.42C788.49,746.77,788.39,746.92,788.3,747.06Z" transform="translate(-451.86 -451.99)"/><path class="cls-2" d="M787.54,749a5,5,0,0,1,.22-.87A5,5,0,0,0,787.54,749Z" transform="translate(-451.86 -451.99)"/><path class="cls-2" d="M787.48,749.86h0c0-.07,0-.15,0-.22S787.48,749.78,787.48,749.86Z" transform="translate(-451.86 -451.99)"/><path class="cls-2" d="M826.34,744.6,997,689.78,902,744.6h1.41a5.29,5.29,0,0,1,2.64.7l7.89,4.56,123.1-71.06,7.9-4.56a5.26,5.26,0,0,0,2.62-4.65,5.49,5.49,0,0,0-.16-1.2c0-.09-.06-.18-.09-.27s-.11-.38-.19-.57-.12-.21-.18-.32a2.91,2.91,0,0,0-.17-.3,5.43,5.43,0,0,0-.7-.92.1.1,0,0,1,0,0,5.53,5.53,0,0,0-1-.75l-.27-.15a5.25,5.25,0,0,0-1-.42l-.15,0a4.81,4.81,0,0,0-1.2-.15c-.1,0-.2,0-.3,0a6.32,6.32,0,0,0-1,.13l-.3.07a.9.9,0,0,0-.16,0L791.13,744.85l-.12,0a5.2,5.2,0,0,1,1.73-.3Z" transform="translate(-451.86 -451.99)"/><path class="cls-2" d="M788.83,746.36a4.17,4.17,0,0,1,.36-.37A4.17,4.17,0,0,0,788.83,746.36Z" transform="translate(-451.86 -451.99)"/><path class="cls-2" d="M787.54,750.68h0c0-.2,0-.41,0-.61C787.5,750.28,787.51,750.48,787.54,750.68Z" transform="translate(-451.86 -451.99)"/><path class="cls-2" d="M789.46,745.76a3.19,3.19,0,0,1,.42-.3A3.19,3.19,0,0,0,789.46,745.76Z" transform="translate(-451.86 -451.99)"/><path class="cls-2" d="M790.19,745.27l.46-.22Z" transform="translate(-451.86 -451.99)"/><path class="cls-2" d="M788.3,752.66c-.06-.1-.13-.2-.19-.31C788.17,752.46,788.24,752.56,788.3,752.66Z" transform="translate(-451.86 -451.99)"/><path class="cls-2" d="M790.19,754.45a3.14,3.14,0,0,1-.31-.18A3.14,3.14,0,0,0,790.19,754.45Z" transform="translate(-451.86 -451.99)"/><path class="cls-2" d="M789.46,754a3,3,0,0,1-.27-.23A3,3,0,0,0,789.46,754Z" transform="translate(-451.86 -451.99)"/><path class="cls-2" d="M791,754.82a3.84,3.84,0,0,1-.36-.14Z" transform="translate(-451.86 -451.99)"/><path class="cls-2" d="M787.88,751.83a2.36,2.36,0,0,1-.12-.28A2.36,2.36,0,0,0,787.88,751.83Z" transform="translate(-451.86 -451.99)"/><path class="cls-2" d="M788.82,753.36l-.23-.27Z" transform="translate(-451.86 -451.99)"/><polygon class="cls-1" points="374.48 303.13 545.13 357.95 450.17 303.13 374.48 303.13"/><path class="cls-2" d="M1041.18,835.15a4.52,4.52,0,0,0,1,.13h.3a5.34,5.34,0,0,0,1.2-.16l.15,0a4.69,4.69,0,0,0,1-.42c.09,0,.18-.09.27-.15a5.1,5.1,0,0,0,1-.75l0,0a6.37,6.37,0,0,0,.7-.92,3.07,3.07,0,0,0,.17-.31,2.43,2.43,0,0,0,.18-.32,5.62,5.62,0,0,0,.19-.58,1.84,1.84,0,0,0,.09-.25,5.59,5.59,0,0,0,.16-1.22,5.24,5.24,0,0,0-2.62-4.64l-7.9-4.56L914,749.86l-7.89-4.56a5.29,5.29,0,0,0-2.64-.7H792.74a5.2,5.2,0,0,0-1.73.3,3.88,3.88,0,0,0-.36.15l-.46.22-.31.19a3.19,3.19,0,0,0-.42.3l-.27.23a4.17,4.17,0,0,0-.36.37l-.24.28c-.1.13-.2.28-.29.42s-.13.2-.19.31a4.83,4.83,0,0,0-.23.52,2.36,2.36,0,0,0-.12.28,5,5,0,0,0-.22.87h0a5.87,5.87,0,0,0,0,.59c0,.07,0,.15,0,.22h0c0,.07,0,.14,0,.21s0,.41,0,.61a5.17,5.17,0,0,0,.22.86,2.36,2.36,0,0,0,.12.28,4.83,4.83,0,0,0,.23.52c.06.11.13.21.19.31s.19.29.29.43l.23.27c.12.13.24.25.37.37a3,3,0,0,0,.27.23c.13.11.28.21.42.31a3.14,3.14,0,0,0,.31.18,4,4,0,0,0,.46.23,3.84,3.84,0,0,0,.36.14l.12,0,249.59,80.18.16,0Zm-214.84-80H902l95,54.81Z" transform="translate(-451.86 -451.99)"/></g></g><g id="nave1"><g id="nave1-2" data-name="nave1"><polygon class="cls-1" points="414 181.73 551.29 144.94 450.8 44.44 414 181.73"/><path class="cls-2" d="M895.34,483.72l.16-.26Z" transform="translate(-451.86 -451.99)"/><path class="cls-2" d="M902.36,481.62l.26.13Z" transform="translate(-451.86 -451.99)"/><path class="cls-2" d="M896.09,482.69l.21-.22Z" transform="translate(-451.86 -451.99)"/><path class="cls-2" d="M1017.11,603.29l-.22.2Z" transform="translate(-451.86 -451.99)"/><path class="cls-2" d="M1018.58,599.6v0Z" transform="translate(-451.86 -451.99)"/><path class="cls-2" d="M1018.4,601a.78.78,0,0,0,0-.14,2.45,2.45,0,0,1-.08.29A.94.94,0,0,0,1018.4,601Z" transform="translate(-451.86 -451.99)"/><path class="cls-2" d="M1016.13,604.08a2.46,2.46,0,0,1-.27.17A2.46,2.46,0,0,0,1016.13,604.08Z" transform="translate(-451.86 -451.99)"/><path class="cls-2" d="M905,487.63l-2.36,8.81,100.49,100.49,8.81-2.36a5.23,5.23,0,0,1,5.13,1.43l-.05-.07L903.65,482.54l-.07-.05A5.24,5.24,0,0,1,905,487.63Z" transform="translate(-451.86 -451.99)"/><path class="cls-2" d="M1017.92,602.19s0,.09-.07.13S1017.89,602.23,1017.92,602.19Z" transform="translate(-451.86 -451.99)"/><path class="cls-2" d="M1018.33,598.11c0,.12.07.23.1.34C1018.4,598.34,1018.37,598.23,1018.33,598.11Z" transform="translate(-451.86 -451.99)"/><path class="cls-2" d="M899.93,481h0Z" transform="translate(-451.86 -451.99)"/><path class="cls-2" d="M898.57,481.18l-.16.07.3-.09Z" transform="translate(-451.86 -451.99)"/><path class="cls-2" d="M897.26,481.74l.14-.07Z" transform="translate(-451.86 -451.99)"/><path class="cls-2" d="M901.14,481.16l.33.1Z" transform="translate(-451.86 -451.99)"/><path class="cls-2" d="M1017.84,597c0,.08.08.17.12.24C1017.92,597.13,1017.89,597.05,1017.84,597Z" transform="translate(-451.86 -451.99)"/><polygon class="cls-1" points="348.32 239.97 401.84 186.45 430.22 80.54 348.32 239.97"/><path class="cls-2" d="M775.31,721.49a3.82,3.82,0,0,1-.2-.53A3.82,3.82,0,0,0,775.31,721.49Z" transform="translate(-451.86 -451.99)"/><path class="cls-2" d="M775,720.6a4,4,0,0,1-.09-.5A4,4,0,0,0,775,720.6Z" transform="translate(-451.86 -451.99)"/><path class="cls-2" d="M775.88,722.54a5.05,5.05,0,0,1-.46-.77A5.4,5.4,0,0,0,775.88,722.54Z" transform="translate(-451.86 -451.99)"/><path class="cls-2" d="M776.42,723.16h0a2.09,2.09,0,0,1-.14-.17A1,1,0,0,0,776.42,723.16Z" transform="translate(-451.86 -451.99)"/><path class="cls-2" d="M800.18,692l81.9-159.42L853.69,638.45l1-1a5.29,5.29,0,0,1,2.36-1.36l8.81-2.36,36.8-137.29,2.36-8.81a5.24,5.24,0,0,0-1.44-5.14,5.34,5.34,0,0,0-1-.74l-.26-.13a4.34,4.34,0,0,0-.53-.26,2.42,2.42,0,0,0-.36-.1l-.33-.1A5.11,5.11,0,0,0,900,481h-.06a5.59,5.59,0,0,0-1.22.16l-.3.09a4.69,4.69,0,0,0-1,.42l-.14.07a5.18,5.18,0,0,0-1,.73l-.21.22a6.52,6.52,0,0,0-.59.77l-.16.26a1.1,1.1,0,0,0-.09.14L775.46,717l-.05.12a5.22,5.22,0,0,1,1-1.44Z" transform="translate(-451.86 -451.99)"/><path class="cls-2" d="M774.9,719.74c0-.17,0-.35,0-.52C774.89,719.39,774.89,719.57,774.9,719.74Z" transform="translate(-451.86 -451.99)"/><path class="cls-2" d="M777,723.7h0a3.47,3.47,0,0,1-.47-.39C776.73,723.44,776.88,723.58,777,723.7Z" transform="translate(-451.86 -451.99)"/><path class="cls-2" d="M774.92,718.86a4.54,4.54,0,0,1,.09-.51A4.54,4.54,0,0,0,774.92,718.86Z" transform="translate(-451.86 -451.99)"/><path class="cls-2" d="M775.09,718c0-.16.11-.32.17-.48C775.2,717.68,775.14,717.84,775.09,718Z" transform="translate(-451.86 -451.99)"/><path class="cls-2" d="M779,724.56l-.35-.08Z" transform="translate(-451.86 -451.99)"/><path class="cls-2" d="M781.58,724.5l-.34.08Z" transform="translate(-451.86 -451.99)"/><path class="cls-2" d="M780.72,724.67l-.35,0Z" transform="translate(-451.86 -451.99)"/><path class="cls-2" d="M782.42,724.18l-.35.15Z" transform="translate(-451.86 -451.99)"/><path class="cls-2" d="M778.09,724.28c-.09,0-.19-.07-.28-.12C777.9,724.21,778,724.24,778.09,724.28Z" transform="translate(-451.86 -451.99)"/><path class="cls-2" d="M779.85,724.69l-.36,0Z" transform="translate(-451.86 -451.99)"/><polygon class="cls-1" points="355.76 247.41 515.19 165.51 409.28 193.9 355.76 247.41"/><path class="cls-2" d="M1016.13,604.08a4.83,4.83,0,0,0,.76-.59l.22-.2a4.89,4.89,0,0,0,.74-1s0-.09.07-.13a5.34,5.34,0,0,0,.42-1,2.45,2.45,0,0,0,.08-.29,5.06,5.06,0,0,0,.16-1.23v0a5.58,5.58,0,0,0-.15-1.15c0-.11-.06-.22-.1-.34a2.68,2.68,0,0,0-.1-.35,5.6,5.6,0,0,0-.27-.55c0-.07-.08-.16-.12-.24a5,5,0,0,0-.75-1,5.23,5.23,0,0,0-5.13-1.43l-8.81,2.36-137.29,36.8-8.81,2.36a5.29,5.29,0,0,0-2.36,1.36l-1,1L800.18,692l-23.76,23.76a5.22,5.22,0,0,0-1,1.44c-.06.12-.1.24-.15.36s-.12.32-.17.48-.06.23-.08.35a4.54,4.54,0,0,0-.09.51l0,.36c0,.17,0,.35,0,.52s0,.24,0,.36a4,4,0,0,0,.09.5c0,.12.05.24.09.36a3.82,3.82,0,0,0,.2.53c0,.09.07.19.11.28a5.05,5.05,0,0,0,.46.77h0a5.46,5.46,0,0,0,.39.45,2.09,2.09,0,0,0,.14.17h0l.16.14a3.47,3.47,0,0,0,.47.39,5,5,0,0,0,.76.46c.09.05.19.08.28.12l.54.2.35.08a4.59,4.59,0,0,0,.51.1l.36,0h.52l.35,0,.52-.09.34-.08.49-.17.35-.15.13,0,233.18-119.79.13-.09A2.46,2.46,0,0,0,1016.13,604.08ZM807.62,699.41l53.52-53.52,105.91-28.38Z" transform="translate(-451.86 -451.99)"/></g></g><g id="centro"><polygon id="center" class="cls-2" points="333.94 210.78 261.79 210.78 210.78 261.79 210.78 333.94 261.79 384.96 333.94 384.96 384.96 333.94 384.96 261.79 333.94 210.78"/></g></svg>